<?xml version="1.0" encoding="UTF-8"?>
<svg version="1.1" xmlns="http://www.w3.org/2000/svg" width="1024" height="1024">
<path d="M0 0 C0.62597076 0.19991043 1.25194153 0.39982086 1.8968811 0.60578918 C3.26999703 1.04567339 4.64162268 1.49023041 6.01190186 1.93887329 C8.28588327 2.68334393 10.56349036 3.41566635 12.84228516 4.14526367 C15.35322214 4.94945603 17.86383628 5.75456552 20.37332153 6.5632782 C26.79872198 8.63343297 33.23567711 10.66435742 39.6796875 12.67578125 C40.65440002 12.98014603 41.62911255 13.2845108 42.63336182 13.59809875 C44.66074609 14.23106343 46.68815125 14.8639612 48.71557617 15.49679565 C64.30808136 20.36586085 79.88414023 25.28346678 95.43793106 30.27469063 C97.81260982 31.03659115 100.18750507 31.79781303 102.56246948 32.55882263 C104.14142283 33.0648362 105.72037181 33.5708634 107.29931641 34.0769043 C108.07921621 34.32684867 108.85911602 34.57679304 109.66264915 34.83431149 C114.3223709 36.32834901 118.98032615 37.82775255 123.63710976 39.33092117 C126.55625146 40.27196776 129.47685517 41.208413 132.39783096 42.14374924 C133.7615114 42.58154301 135.12455545 43.02132483 136.48690414 43.46324539 C138.36752317 44.0730564 140.25061091 44.67523798 142.13378906 45.27709961 C143.19019592 45.61744736 144.24660278 45.9577951 145.33502197 46.30845642 C148.69503912 47.222025 152.00009983 47.73082397 155.453125 48.15625 C155.453125 48.81625 155.453125 49.47625 155.453125 50.15625 C155.99835312 50.26863007 156.54358124 50.38101013 157.10533142 50.49679565 C162.66545863 51.68201652 168.04654474 53.17652823 173.45703125 54.9140625 C174.29029938 55.17826996 175.1235675 55.44247742 175.98208618 55.71469116 C178.66138295 56.56573553 181.33867821 57.42284457 184.015625 58.28125 C184.92720367 58.57281982 185.83878235 58.86438965 186.77798462 59.16479492 C191.34123621 60.62442541 195.90319046 62.088009 200.46386719 63.55566406 C204.7284469 64.92671824 208.99977121 66.27475216 213.2734375 67.6171875 C215.39614696 68.2958949 217.51857425 68.97548587 219.640625 69.65625 C220.57527588 69.94516113 221.50992676 70.23407227 222.47290039 70.53173828 C230.53387134 73.16063014 235.3559491 77.03569951 239.39344501 84.5268935 C241.30147713 89.26124417 241.13336138 93.92925849 241.07458496 98.97267151 C241.08097378 100.13540728 241.0873626 101.29814305 241.09394503 102.49611324 C241.10650995 105.7020452 241.09682059 108.90699291 241.07743025 112.11286151 C241.06193967 115.57948192 241.07542235 119.04600973 241.08517456 122.51263428 C241.0996784 129.29944591 241.08748564 136.08595762 241.06606132 142.87274081 C241.04197157 150.79753679 241.04377107 158.72226514 241.04636723 166.64708959 C241.05005597 180.81027981 241.02925522 194.9733297 240.99511719 209.13647461 C240.96212112 222.83117224 240.94784327 236.52572238 240.95410156 250.22045898 C240.96198664 267.56003008 240.95244698 284.89950948 240.92925903 302.2390665 C240.92241509 307.74024499 240.92168562 313.24140429 240.92314148 318.74258614 C240.92459581 325.47463207 240.91463118 332.20655907 240.89119512 338.9385658 C240.87949574 342.36236417 240.8737446 345.78586376 240.87803268 349.20969963 C240.89881121 369.73344201 240.11861543 390.34416816 234.765625 410.28125 C234.51071289 411.25803711 234.25580078 412.23482422 233.99316406 413.24121094 C224.45447751 448.62666104 206.86503112 478.10850597 182.90429688 505.47558594 C181.86463743 506.67965989 180.84171078 507.89826112 179.83007812 509.12597656 C179.29833984 509.76760742 178.76660156 510.40923828 178.21875 511.0703125 C177.73696289 511.66021973 177.25517578 512.25012695 176.75878906 512.85791016 C175.453125 514.15625 175.453125 514.15625 173.453125 514.15625 C173.18685303 514.75155518 172.92058105 515.34686035 172.64624023 515.96020508 C171.42476935 518.20844133 170.22968414 519.56158574 168.36328125 521.29296875 C167.7501709 521.86515137 167.13706055 522.43733398 166.50537109 523.02685547 C165.84875488 523.62643066 165.19213867 524.22600586 164.515625 524.84375 C163.83322754 525.47168457 163.15083008 526.09961914 162.44775391 526.74658203 C156.95072967 531.7705494 151.33616454 536.58868282 145.453125 541.15625 C144.70256836 541.74164551 143.95201172 542.32704102 143.17871094 542.93017578 C132.83659493 550.97338261 122.43674442 558.80907706 111.41113281 565.89160156 C109.28688963 567.26361898 107.17818676 568.65766117 105.0703125 570.0546875 C84.64919164 583.53690062 63.57042251 596.0041824 42.46875 608.38427734 C39.66652712 610.03085552 36.8674877 611.68268796 34.06929016 613.33609009 C26.21611328 617.97553295 18.34414622 622.58148009 10.453125 627.15625 C9.59380371 627.65688965 8.73448242 628.1575293 7.84912109 628.67333984 C-1.89176472 634.3090328 -8.96597849 637.48530586 -20.14648438 634.875 C-24.19519219 633.66269367 -27.7074653 631.69032993 -31.359375 629.59375 C-32.1961377 629.12412842 -33.03290039 628.65450684 -33.89501953 628.1706543 C-42.83816583 623.09653445 -51.61669518 617.73412526 -60.37426758 612.34741211 C-66.69693996 608.46457319 -73.06237817 604.69150453 -79.5163269 601.0335083 C-84.77010257 598.04852813 -89.92184425 594.91847305 -95.046875 591.71875 C-95.94559326 591.15945801 -96.84431152 590.60016602 -97.77026367 590.02392578 C-100.36527286 588.40579287 -102.95703755 586.782645 -105.546875 585.15625 C-106.56128662 584.51937256 -106.56128662 584.51937256 -107.59619141 583.86962891 C-134.32460794 567.02909973 -159.90688361 548.46930577 -183.28515625 527.19921875 C-185.34559141 525.33806575 -187.43801818 523.52453758 -189.546875 521.71875 C-197.11717402 515.11194358 -204.13131489 507.88553315 -210.546875 500.15625 C-211.19245361 499.3813623 -211.19245361 499.3813623 -211.85107422 498.59082031 C-252.49954061 449.55938201 -265.91704712 394.60333552 -265.80566406 332.04296875 C-265.80838253 329.43322655 -265.81194822 326.82348513 -265.81628418 324.21374512 C-265.82506635 317.93290262 -265.82330843 311.65210855 -265.8174589 305.37126434 C-265.81290404 300.26562286 -265.81234579 295.15999475 -265.81450653 290.05435181 C-265.814813 289.32209147 -265.81511946 288.58983113 -265.81543522 287.83538109 C-265.81607477 286.34706902 -265.8167232 284.85875696 -265.8173804 283.37044489 C-265.82304916 269.49914147 -265.81657717 255.62786473 -265.80577967 241.75656569 C-265.79681708 229.87415556 -265.79842509 217.99178446 -265.80761719 206.109375 C-265.81832926 192.2559282 -265.82253167 178.40250451 -265.81639266 164.54905415 C-265.81575564 163.07173475 -265.8151269 161.59441535 -265.81450653 160.11709595 C-265.8140437 159.0271776 -265.8140437 159.0271776 -265.81357153 157.91524071 C-265.81184965 152.8120896 -265.81474808 147.70895326 -265.81946564 142.60580444 C-265.82567112 135.74373173 -265.82123171 128.88173403 -265.80967712 122.01966858 C-265.80703527 119.50461449 -265.80778752 116.98955417 -265.81220245 114.47450256 C-265.81767696 111.03915179 -265.81080087 107.60403696 -265.80084229 104.16870117 C-265.80530373 103.17697749 -265.80976517 102.18525381 -265.81436181 101.1634779 C-265.77354285 93.89201244 -265.56617802 85.87379019 -260.921875 79.90625 C-260.47585938 79.30296875 -260.02984375 78.6996875 -259.5703125 78.078125 C-253.55436864 72.36413971 -246.45955228 69.85518535 -238.6328125 67.546875 C-237.57054443 67.2229628 -236.50827637 66.8990506 -235.41381836 66.56532288 C-233.11977137 65.86719273 -230.82411436 65.17433549 -228.52703857 64.48623657 C-223.59495538 63.00874921 -218.67070313 61.50591411 -213.74575806 60.00483704 C-211.18102869 59.2234605 -208.61599693 58.44318027 -206.05038452 57.66471863 C-194.10391396 54.03763649 -182.19357535 50.29879417 -170.28988647 46.53390503 C-164.68521505 44.76139208 -159.07894652 42.99394731 -153.47265625 41.2265625 C-152.38511551 40.8836467 -151.29757477 40.5407309 -150.17707825 40.18742371 C-121.44564772 31.13313734 -92.6618537 22.24599064 -63.86422729 13.40484619 C-57.77129964 11.53375714 -51.68034824 9.65630352 -45.58984375 7.77734375 C-42.8872902 6.94404033 -40.18470858 6.11082803 -37.4821167 5.27764893 C-35.74848732 4.74296762 -34.01496485 4.20793953 -32.28155518 3.67254639 C-29.887217 2.93308148 -27.49248155 2.19491677 -25.09765625 1.45703125 C-24.03492744 1.12825233 -24.03492744 1.12825233 -22.95072937 0.79283142 C-21.15189043 0.23929261 -19.34957047 -0.3029027 -17.546875 -0.84375 C-16.53983521 -1.16243042 -16.53983521 -1.16243042 -15.51245117 -1.48754883 C-9.98619738 -2.48901502 -5.27633085 -1.71415356 0 0 Z " fill="#FED22E" transform="translate(523.546875,191.84375)"/>
<path d="M0 0 C15.18 0 30.36 0 46 0 C46.33 29.37 46.66 58.74 47 89 C57.94215342 75.74055723 57.94215342 75.74055723 68.51171875 62.23828125 C71.7595217 57.98592226 75.11999806 53.82432519 78.47143555 49.65356445 C81.82331433 45.4793752 85.14105484 41.28055778 88.4375 37.0625 C92.95323802 31.28792829 97.56973653 25.60040446 102.20776367 19.92382812 C106.63527962 14.48809233 110.92802321 8.95866908 115.171875 3.37890625 C117 1 117 1 118 0 C119.5348297 -0.09319449 121.07392082 -0.117458 122.61157227 -0.11352539 C123.59251358 -0.11344986 124.5734549 -0.11337433 125.5841217 -0.11329651 C126.6507756 -0.10813522 127.7174295 -0.10297394 128.81640625 -0.09765625 C130.44569313 -0.09553383 130.44569313 -0.09553383 132.1078949 -0.09336853 C135.59279075 -0.08775048 139.07762342 -0.07519492 142.5625 -0.0625 C144.91861887 -0.05748733 147.27473874 -0.05292402 149.63085938 -0.04882812 C155.42059464 -0.03777519 161.21029281 -0.02101951 167 0 C164.5840941 4.2950135 162.27545863 8.11318664 159.0625 11.875 C155.18758521 16.51603356 151.47037779 21.24872184 147.8125 26.0625 C143.24362072 32.06976745 138.64240049 38.04934526 134 44 C129.4049191 49.89222334 124.84238797 55.80751554 120.3125 61.75 C112.02343779 72.61821511 103.56551014 83.34833409 95 94 C96.31943693 97.60379944 97.91168137 100.58329262 100.08984375 103.73828125 C100.70359863 104.63248779 101.31735352 105.52669434 101.94970703 106.44799805 C102.93366455 107.86592651 102.93366455 107.86592651 103.9375 109.3125 C104.61409668 110.29581299 105.29069336 111.27912598 105.98779297 112.29223633 C107.9878364 115.19762486 109.99372975 118.09890955 112 121 C113.44269091 123.09658529 114.88339262 125.19452253 116.32373047 127.29272461 C117.63731281 129.20542866 118.95332319 131.11644587 120.26953125 133.02734375 C122.21094489 135.84844938 124.14463756 138.67469461 126.07421875 141.50390625 C131.66788807 149.70381364 137.29610068 157.87628854 143 166 C149.18238006 174.80621771 155.2746047 183.67085234 161.33398438 192.56201172 C163.11750079 195.17194649 164.90950164 197.77590801 166.703125 200.37890625 C167.60889282 201.69556274 167.60889282 201.69556274 168.53295898 203.03881836 C169.69999056 204.73484875 170.86871545 206.42971549 172.03930664 208.12329102 C172.55871826 208.87924561 173.07812988 209.6352002 173.61328125 210.4140625 C174.07516846 211.0838916 174.53705566 211.7537207 175.01293945 212.44384766 C176 214 176 214 176 215 C168.22848425 215.45874233 160.46047447 215.77245577 152.6784668 215.98876953 C150.03619025 216.07896286 147.39480438 216.20157446 144.75561523 216.35791016 C123.46709343 217.58678917 123.46709343 217.58678917 117.80657959 213.36349487 C114.144481 209.17142007 111.99256885 204.38204019 109.94815063 199.2479248 C108.64653917 196.16199669 106.8731142 193.53576036 104.953125 190.80078125 C104.34380127 189.89424805 103.73447754 188.98771484 103.10668945 188.05371094 C102.49398193 187.14911133 101.88127441 186.24451172 101.25 185.3125 C99.87273915 183.26236252 98.49646202 181.21156388 97.12109375 179.16015625 C96.43644043 178.13937988 95.75178711 177.11860352 95.04638672 176.06689453 C91.76627286 171.15102835 88.53626693 166.20293921 85.3125 161.25 C84.39597656 159.84234375 84.39597656 159.84234375 83.4609375 158.40625 C80.394508 153.69218674 77.3346642 148.9738811 74.27734375 144.25390625 C73.68332764 143.33770508 73.08931152 142.42150391 72.47729492 141.47753906 C71.35757481 139.74992567 70.23916572 138.02146159 69.12231445 136.29199219 C68.62304443 135.52145508 68.12377441 134.75091797 67.609375 133.95703125 C67.17592773 133.28647705 66.74248047 132.61592285 66.29589844 131.92504883 C64.92982034 129.89574857 63.4834108 127.94474181 62 126 C61.33613281 126.86882812 60.67226563 127.73765625 59.98828125 128.6328125 C59.09642033 129.7969257 58.2044895 130.96098533 57.3125 132.125 C56.87744141 132.69476562 56.44238281 133.26453125 55.99414062 133.8515625 C55.55908203 134.41875 55.12402344 134.9859375 54.67578125 135.5703125 C54.0866394 136.34012451 54.0866394 136.34012451 53.4855957 137.12548828 C52 139 52 139 49.44836426 141.67297363 C46.63480795 145.06376888 46.3646038 147.66983159 46.34057617 152.10693359 C46.33009247 152.79055969 46.31960876 153.47418579 46.30880737 154.17852783 C46.28020153 156.41896769 46.28633082 158.65784883 46.29296875 160.8984375 C46.27984474 162.45929894 46.26453835 164.02014342 46.24714661 165.58096313 C46.20736507 169.67450963 46.19711066 173.76761115 46.19311523 177.86132812 C46.18212573 182.7808044 46.13426788 187.70004501 46.09262848 192.61933899 C46.03358823 200.07975846 46.02122907 207.53894575 46 215 C30.82 215 15.64 215 0 215 C0 144.05 0 73.1 0 0 Z " fill="#111215" transform="translate(350,411)"/>
<path d="M0 0 C49.5 0 99 0 150 0 C150 13.53 150 27.06 150 41 C132.18 41 114.36 41 96 41 C96 98.42 96 155.84 96 215 C81.15 215 66.3 215 51 215 C51 157.58 51 100.16 51 41 C34.17 41 17.34 41 0 41 C0 27.47 0 13.94 0 0 Z " fill="#101215" transform="translate(540,411)"/>
<path d="M0 0 C3.01388073 1.35058114 5.1034677 2.85604775 7.42578125 5.1953125 C8.05806641 5.82953125 8.69035156 6.46375 9.34179688 7.1171875 C9.99212891 7.77976562 10.64246094 8.44234375 11.3125 9.125 C11.95123047 9.764375 12.58996094 10.40375 13.24804688 11.0625 C16.41929815 14.26266846 19.482461 17.51497301 22.421875 20.9296875 C26.37699237 25.50682629 30.63804535 29.74843987 34.9375 34 C35.71673828 34.77472656 36.49597656 35.54945313 37.29882812 36.34765625 C39.1969242 38.23410757 41.09733149 40.11816245 43 42 C41.56741228 45.27196452 39.81174684 47.43203956 37.28466797 49.94238281 C36.52403046 50.70286926 35.76339294 51.46335571 34.97970581 52.24688721 C34.15882477 53.05744568 33.33794373 53.86800415 32.4921875 54.703125 C31.65156769 55.54091492 30.81094788 56.37870483 29.94485474 57.24188232 C27.25955999 59.91598431 24.56739345 62.58304724 21.875 65.25 C20.05292845 67.06204062 18.23130823 68.87453518 16.41015625 70.6875 C11.94532748 75.13028036 7.47483717 79.56730165 3 84 C-0.63303084 82.30413874 -2.94549046 80.26199512 -5.75 77.375 C-6.54921875 76.55773437 -7.3484375 75.74046875 -8.171875 74.8984375 C-8.77515625 74.27195312 -9.3784375 73.64546875 -10 73 C-4.47349666 66.25919575 1.69449559 60.1928871 7.875 54.0625 C8.95596274 52.98656273 10.03669383 51.91039269 11.1171875 50.83398438 C13.74212641 48.21996708 16.37018628 45.60911404 19 43 C13.96019192 36.89391848 8.44859067 31.36696734 2.8125 25.8125 C1.02499885 24.05055283 -0.76025199 22.28631905 -2.54296875 20.51953125 C-3.32696045 19.74714111 -4.11095215 18.97475098 -4.91870117 18.17895508 C-6.79880696 16.21063318 -8.42443633 14.21548879 -10 12 C-8.52278578 8.54798361 -6.56205999 6.35038064 -3.875 3.75 C-3.15054687 3.04359375 -2.42609375 2.3371875 -1.6796875 1.609375 C-1.12539063 1.07828125 -0.57109375 0.5471875 0 0 Z " fill="#131416" transform="translate(358,308)"/>
<path d="M0 0 C16.17 0 32.34 0 49 0 C49 5.94 49 11.88 49 18 C32.83 18 16.66 18 0 18 C0 12.06 0 6.12 0 0 Z " fill="#121516" transform="translate(416,360)"/>
<path d="M0 0 C5.80891746 4.81867247 11.13065552 10.01256408 16.4375 15.375 C17.26443359 16.20644531 18.09136719 17.03789062 18.94335938 17.89453125 C20.96455531 19.9274104 22.98336335 21.96259963 25 24 C23.56741228 27.27196452 21.81174684 29.43203956 19.28466797 31.94238281 C18.52403046 32.70286926 17.76339294 33.46335571 16.97970581 34.24688721 C16.15882477 35.05744568 15.33794373 35.86800415 14.4921875 36.703125 C13.65156769 37.54091492 12.81094788 38.37870483 11.94485474 39.24188232 C9.25955999 41.91598431 6.56739345 44.58304724 3.875 47.25 C2.05292845 49.06204062 0.23130823 50.87453518 -1.58984375 52.6875 C-6.05467252 57.13028036 -10.52516283 61.56730165 -15 66 C-18.63303084 64.30413874 -20.94549046 62.26199512 -23.75 59.375 C-24.54921875 58.55773437 -25.3484375 57.74046875 -26.171875 56.8984375 C-26.77515625 56.27195312 -27.3784375 55.64546875 -28 55 C-22.47349666 48.25919575 -16.30550441 42.1928871 -10.125 36.0625 C-9.04403726 34.98656273 -7.96330617 33.91039269 -6.8828125 32.83398438 C-4.25787359 30.21996708 -1.62981372 27.60911404 1 25 C-3.58289052 19.47148342 -8.5061923 14.43547003 -13.671875 9.45507812 C-15.15030118 8.00560729 -16.57981288 6.50657832 -18 5 C-18 4.34 -18 3.68 -18 3 C-17.34 3 -16.68 3 -16 3 C-14.73046875 4.29296875 -14.73046875 4.29296875 -13.1875 6.1875 C-7.84581976 12.49522879 -1.87947217 18.20009963 4 24 C-1.61899308 30.84667224 -7.92636947 36.95560851 -14.28198242 43.1105957 C-15.7011549 44.48747575 -17.11049544 45.87446705 -18.51953125 47.26171875 C-19.35589111 48.07600342 -20.19225098 48.89028809 -21.05395508 49.72924805 C-22.95143451 51.94333112 -23.79370459 53.11379587 -24 56 C-22.5913183 58.01492568 -22.5913183 58.01492568 -20.5625 59.75 C-19.90378906 60.36359375 -19.24507813 60.9771875 -18.56640625 61.609375 C-18.04949219 62.06828125 -17.53257812 62.5271875 -17 63 C-13.86261846 61.60919475 -11.74524719 59.98977796 -9.33300781 57.56005859 C-8.28237152 56.50919571 -8.28237152 56.50919571 -7.21051025 55.43710327 C-6.46557312 54.68184357 -5.72063599 53.92658386 -4.953125 53.1484375 C-4.18192322 52.37440582 -3.41072144 51.60037415 -2.6161499 50.80288696 C-0.15603144 48.33158077 2.29703848 45.85340817 4.75 43.375 C6.41750894 41.69745948 8.08547232 40.02037055 9.75390625 38.34375 C13.8412237 34.23439081 17.92277696 30.11937353 22 26 C20.30463282 22.3820723 18.30847656 20.10274712 15.4296875 17.3046875 C14.08583984 15.98404297 14.08583984 15.98404297 12.71484375 14.63671875 C11.77769531 13.72535156 10.84054687 12.81398438 9.875 11.875 C8.01372736 10.06451243 6.15670799 8.24963837 4.3046875 6.4296875 C3.47952637 5.62772949 2.65436523 4.82577148 1.80419922 3.99951172 C0 2 0 2 0 0 Z " fill="#05030C" transform="translate(376,326)"/>
<path d="M0 0 C16.17 0 32.34 0 49 0 C49 5.94 49 11.88 49 18 C32.83 18 16.66 18 0 18 C0 12.06 0 6.12 0 0 Z M1 2 C1 6.95 1 11.9 1 17 C16.18 17 31.36 17 47 17 C47 12.05 47 7.1 47 2 C31.82 2 16.64 2 1 2 Z " fill="#00010B" transform="translate(416,360)"/>
<path d="M0 0 C0.33 0 0.66 0 1 0 C3.35001386 6.47913427 4.38458877 11.20292787 3 18 C3.66 18 4.32 18 5 18 C5 21.96 5 25.92 5 30 C4.67 30 4.34 30 4 30 C3.32137828 26.50221037 2.65931111 23.00147657 2 19.5 C1.80921875 18.51773438 1.6184375 17.53546875 1.421875 16.5234375 C0.37400593 10.90985321 -0.21751082 5.7096591 0 0 Z " fill="#FBD53E" transform="translate(260,568)"/>
<path d="M0 0 C-0.66 0 -1.32 0 -2 0 C-2 0.66 -2 1.32 -2 2 C-8.7812815 4.49836687 -15.75279368 6.1808572 -23 6 C-19.32533812 4.00330873 -15.44657508 2.65740083 -11.5 1.3125 C-10.83613281 1.07466797 -10.17226563 0.83683594 -9.48828125 0.59179688 C-3.46442227 -1.45823897 -3.46442227 -1.45823897 0 0 Z " fill="#FDD93F" transform="translate(339,245)"/>
<path d="M0 0 C6.45054982 1.35253464 12.71105679 3.03060233 19 5 C12.92224764 6.76109164 6.84912684 5.10568566 1 3 C0.67 2.01 0.34 1.02 0 0 Z " fill="#FDD83D" transform="translate(600,217)"/>
<path d="M0 0 C-1 2 -1 2 -4.0625 3.125 C-8.09858291 4.19682285 -11.84184728 4.1459001 -16 4 C-13.41588269 2.27725513 -11.45097344 1.31104478 -8.5625 0.3125 C-7.41974609 -0.09548828 -7.41974609 -0.09548828 -6.25390625 -0.51171875 C-3.78170279 -1.04729142 -2.37016716 -0.80445309 0 0 Z " fill="#FDD83C" transform="translate(506,193)"/>
<path d="M0 0 C6.17222879 1.24028238 12.06682122 2.89603589 18 5 C16.203125 6.0546875 16.203125 6.0546875 14 7 C10.75 6.125 10.75 6.125 8 5 C8 4.34 8 3.68 8 3 C7.05125 2.87625 6.1025 2.7525 5.125 2.625 C2 2 2 2 0 0 Z " fill="#FDDA42" transform="translate(714,253)"/>
<path d="M0 0 C-1.85625 0.680625 -1.85625 0.680625 -3.75 1.375 C-5.98006112 2.19762744 -7.95380773 2.97257334 -10 4.1875 C-13.27853217 5.51940369 -16.48874513 5.11704183 -20 5 C-16.85418354 2.90278902 -14.1591082 1.94332914 -10.5625 0.8125 C-9.42941406 0.44769531 -8.29632813 0.08289063 -7.12890625 -0.29296875 C-4.1660003 -0.96248932 -2.77995035 -1.07236414 0 0 Z " fill="#FDDC46" transform="translate(416,221)"/>
<path d="M0 0 C-0.66 0.66 -1.32 1.32 -2 2 C-2.99 1.67 -3.98 1.34 -5 1 C-5 1.66 -5 2.32 -5 3 C-9.02040985 3.69584017 -12.08263419 4.1700097 -16 3 C-13.89936424 2.30178583 -11.79434263 1.61675528 -9.6875 0.9375 C-8.51574219 0.55464844 -7.34398437 0.17179688 -6.13671875 -0.22265625 C-3 -1 -3 -1 0 0 Z " fill="#FCD945" transform="translate(316,252)"/>
<path d="M0 0 C3.81684226 1.55500981 6.19195732 4.03595495 9 7 C8.67 7.99 8.34 8.98 8 10 C6.66070495 8.71451591 5.32871357 7.42141845 4 6.125 C2.88625 5.04605469 2.88625 5.04605469 1.75 3.9453125 C0 2 0 2 0 0 Z " fill="#EBD12D" transform="translate(378,326)"/>
<path d="M0 0 C0.33 0.66 0.66 1.32 1 2 C-0.21484375 4.3828125 -0.21484375 4.3828125 -1.9375 7.125 C-2.50339844 8.03507813 -3.06929687 8.94515625 -3.65234375 9.8828125 C-4.09707031 10.58148437 -4.54179688 11.28015625 -5 12 C-6 10 -6 10 -5.546875 8.125 C-5.28390625 7.42375 -5.0209375 6.7225 -4.75 6 C-4.49734375 5.29875 -4.2446875 4.5975 -3.984375 3.875 C-3 2 -3 2 0 0 Z " fill="#FBD639" transform="translate(737,652)"/>
<path d="M0 0 C0.66 0.66 1.32 1.32 2 2 C1.54109375 2.38671875 1.0821875 2.7734375 0.609375 3.171875 C-2.725081 6.00195951 -5.96501303 8.84361355 -9 12 C-8.45015228 8.12488273 -6.72444669 6.40423494 -3.9375 3.75 C-3.20402344 3.04359375 -2.47054688 2.3371875 -1.71484375 1.609375 C-1.14894531 1.07828125 -0.58304687 0.5471875 0 0 Z " fill="#F7E332" transform="translate(373,379)"/>
<path d="M0 0 C-0.99 0 -1.98 0 -3 0 C-3 0.66 -3 1.32 -3 2 C-6.21451269 3.60725635 -9.43612536 3.05748185 -13 3 C-9.54666565 -0.45333435 -4.63654999 -1.85462 0 0 Z " fill="#FDD93B" transform="translate(484,200)"/>
<path d="M0 0 C3.21043882 1.38188453 5.04936365 2.92421903 7.25 5.625 C8.03117187 6.57246094 8.03117187 6.57246094 8.828125 7.5390625 C9.40820312 8.26222656 9.40820312 8.26222656 10 9 C7.27425729 8.62669176 6.19177915 8.20805399 4.296875 6.15234375 C3.53117187 5.05599609 3.53117187 5.05599609 2.75 3.9375 C2.22921875 3.20402344 1.7084375 2.47054687 1.171875 1.71484375 C0.78515625 1.14894531 0.3984375 0.58304688 0 0 Z " fill="#FECE20" transform="translate(334,711)"/>
<path d="M0 0 C1.4391134 0.28359887 2.87625518 0.57721399 4.3125 0.875 C5.11300781 1.03742188 5.91351562 1.19984375 6.73828125 1.3671875 C9 2 9 2 12 4 C8.71303767 4.79953138 7.28976808 5.09658936 4 4 C1 2 1 2 0 0 Z " fill="#FDD941" transform="translate(641,230)"/>
<path d="M0 0 C7.57142857 1.85714286 7.57142857 1.85714286 10 5 C5.75354935 5 3.61475228 3.18249194 0 1 C0 0.67 0 0.34 0 0 Z " fill="#FBD43B" transform="translate(485,816)"/>
<path d="M0 0 C3.63 0 7.26 0 11 0 C11 0.33 11 0.66 11 1 C6.545 1.495 6.545 1.495 2 2 C2 2.66 2 3.32 2 4 C1.34 4 0.68 4 0 4 C0 2.68 0 1.36 0 0 Z " fill="#191A18" transform="translate(541,412)"/>
<path d="M0 0 C-0.66 0 -1.32 0 -2 0 C-2 0.66 -2 1.32 -2 2 C-4.60582371 2.93065133 -5.64198224 3.14917407 -8.25 2.0625 C-8.8275 1.711875 -9.405 1.36125 -10 1 C-3.71428571 -1.42857143 -3.71428571 -1.42857143 0 0 Z " fill="#FDDB43" transform="translate(435,215)"/>
<path d="M0 0 C1 4 1 4 1 4 Z " fill="#F4CD3B" transform="translate(264,601)"/>
<path d="" fill="#F1CB3D" transform="translate(0,0)"/>
<path d="M0 0 C3 1 3 1 3 1 Z " fill="#F2CF38" transform="translate(342,240)"/>
<path d="M0 0 C2 1 2 1 2 1 Z " fill="#F1CD3D" transform="translate(317,248)"/>
<path d="M0 0 C2 1 2 1 2 1 Z " fill="#F0CE40" transform="translate(368,232)"/>
<path d="M0 0 C2 1 2 1 2 1 Z " fill="#F1CD3B" transform="translate(392,224)"/>
<path d="" fill="#413B2C" transform="translate(0,0)"/>
<path d="" fill="#F0C839" transform="translate(0,0)"/>
<path d="" fill="#EFC939" transform="translate(0,0)"/>
<path d="" fill="#EFCA3B" transform="translate(0,0)"/>
<path d="" fill="#EEC93D" transform="translate(0,0)"/>
<path d="" fill="#F2CC39" transform="translate(0,0)"/>
<path d="" fill="#F1CA39" transform="translate(0,0)"/>
<path d="" fill="#F2CD39" transform="translate(0,0)"/>
<path d="" fill="#F1CA37" transform="translate(0,0)"/>
<path d="" fill="#EFCA3B" transform="translate(0,0)"/>
<path d="" fill="#F1CB3C" transform="translate(0,0)"/>
<path d="" fill="#F0CC3D" transform="translate(0,0)"/>
<path d="" fill="#F1CB39" transform="translate(0,0)"/>
<path d="" fill="#F0CA38" transform="translate(0,0)"/>
<path d="" fill="#F4CE38" transform="translate(0,0)"/>
<path d="" fill="#F6CF3E" transform="translate(0,0)"/>
<path d="" fill="#F0CD39" transform="translate(0,0)"/>
<path d="" fill="#F0CC3F" transform="translate(0,0)"/>
<path d="" fill="#F2CC3F" transform="translate(0,0)"/>
<path d="" fill="#EFC93C" transform="translate(0,0)"/>
<path d="" fill="#F2CB38" transform="translate(0,0)"/>
<path d="" fill="#F3CC37" transform="translate(0,0)"/>
<path d="" fill="#F1CC3C" transform="translate(0,0)"/>
<path d="" fill="#F0CB3C" transform="translate(0,0)"/>
<path d="" fill="#F2CB37" transform="translate(0,0)"/>
<path d="" fill="#EFC939" transform="translate(0,0)"/>
<path d="" fill="#F0CB3C" transform="translate(0,0)"/>
<path d="" fill="#F1C934" transform="translate(0,0)"/>
<path d="" fill="#EBC138" transform="translate(0,0)"/>
<path d="" fill="#F1CB3D" transform="translate(0,0)"/>
<path d="" fill="#F1CC3C" transform="translate(0,0)"/>
<path d="" fill="#F0CC40" transform="translate(0,0)"/>
<path d="" fill="#F0CA3E" transform="translate(0,0)"/>
<path d="" fill="#F2CC3D" transform="translate(0,0)"/>
<path d="" fill="#F2CC3C" transform="translate(0,0)"/>
<path d="" fill="#F3CC3E" transform="translate(0,0)"/>
<path d="" fill="#F3CD3E" transform="translate(0,0)"/>
<path d="" fill="#F1CB3E" transform="translate(0,0)"/>
<path d="" fill="#F0CC3F" transform="translate(0,0)"/>
<path d="" fill="#F1CB3C" transform="translate(0,0)"/>
<path d="" fill="#E9C43E" transform="translate(0,0)"/>
<path d="" fill="#E8C53A" transform="translate(0,0)"/>
<path d="" fill="#F0C93E" transform="translate(0,0)"/>
<path d="" fill="#EFCC3D" transform="translate(0,0)"/>
<path d="" fill="#F3CC3C" transform="translate(0,0)"/>
<path d="" fill="#F1CE3A" transform="translate(0,0)"/>
<path d="" fill="#F0CC39" transform="translate(0,0)"/>
<path d="" fill="#F3CF3B" transform="translate(0,0)"/>
<path d="" fill="#F0CA3F" transform="translate(0,0)"/>
<path d="" fill="#F1CC39" transform="translate(0,0)"/>
<path d="" fill="#F5CF3C" transform="translate(0,0)"/>
<path d="" fill="#F2CF3C" transform="translate(0,0)"/>
<path d="" fill="#F6D03E" transform="translate(0,0)"/>
<path d="" fill="#635944" transform="translate(0,0)"/>
</svg>
